<?xml version="1.0" encoding="UTF-8"?>
<!-- Generated by Pixelmator Pro 3.5.9 -->
<svg width="204" height="37" viewBox="0 0 204 37" xmlns="http://www.w3.org/2000/svg">
    <g id="g1">
        <radialGradient id="radialGradient1" cx="-2.648817" cy="1.097796" r="34.297432" fx="-2.648817" fy="1.097796" gradientUnits="userSpaceOnUse">
            <stop offset="1e-05" stop-color="#00ffc4" stop-opacity="1"/>
            <stop offset="1" stop-color="#00e1ff" stop-opacity="1"/>
        </radialGradient>
        <path id="path1" fill="url(#radialGradient1)" stroke="none" d="M 30.343 9.99 C 33.148033 12.755388 34.731079 16.527433 34.739719 20.466406 C 34.74836 24.40538 33.181877 28.184334 30.389 30.962 C 26.933403 34.407391 22.249727 36.337486 17.370001 36.327 C 11.93539 36.339165 6.773951 33.945896 3.272 29.790001 C 10.481 35.744999 21.216999 35.370998 27.985001 28.672001 C 30.172462 26.515179 31.403975 23.571449 31.403975 20.4995 C 31.403975 17.427551 30.172462 14.483822 27.985001 12.327 C 23.424999 7.813 16.032 7.813 11.472 12.327 C 10.534027 13.251293 10.005915 14.513144 10.005915 15.83 C 10.005915 17.146856 10.534027 18.408707 11.472 19.333 C 13.434312 21.267723 16.586689 21.267723 18.549 19.333 C 19.203104 18.688093 20.253897 18.688093 20.908001 19.333 C 21.220018 19.640965 21.395653 20.061096 21.395653 20.4995 C 21.395653 20.937904 21.220018 21.358034 20.908001 21.666 C 17.6376 24.889881 12.384399 24.889881 9.114 21.666 C 7.551872 20.125431 6.672443 18.022991 6.672443 15.829 C 6.672443 13.63501 7.551872 11.53257 9.114 9.992001 C 14.975 4.187 24.48 4.187 30.343 9.992001 Z M 17.370001 0 C 22.804483 -0.011898 27.965635 2.381775 31.466999 6.538 C 24.257 0.583 13.52 0.958 6.756 7.653 L 6.756 7.655001 C 4.568228 9.811859 3.336518 12.755804 3.336518 15.827999 C 3.336518 18.900196 4.568228 21.844141 6.756 24.000999 C 11.314 28.516001 18.705999 28.516001 23.266001 24.000999 C 24.203663 23.076744 24.731579 21.815109 24.731579 20.498501 C 24.731579 19.18189 24.203663 17.920256 23.266001 16.996 C 21.303688 15.061277 18.151312 15.061277 16.188999 16.996 C 15.535016 17.640251 14.484983 17.640251 13.831 16.996 C 13.518672 16.687998 13.342839 16.267651 13.342839 15.829 C 13.342839 15.39035 13.518672 14.970003 13.831 14.661999 C 17.101398 11.438118 22.354601 11.438118 25.625 14.661999 C 27.187128 16.202568 28.066557 18.30501 28.066557 20.499001 C 28.066557 22.692991 27.187128 24.795431 25.625 26.336 C 19.763 32.140999 10.258 32.140999 4.395 26.336 C 1.586367 23.566431 0.003508 19.787657 -0.000249 15.843178 C -0.004007 11.898699 1.57165 8.116915 4.375 5.341999 C 7.828469 1.910927 12.501879 -0.010223 17.370001 0 Z"/>
        <path id="path2" fill="none" stroke="none" d="M 59.210999 27.49 C 59.660034 27.492682 60.09145 27.315489 60.40897 26.997969 C 60.72649 26.68045 60.903683 26.249033 60.901001 25.799999 C 60.903683 25.350967 60.72649 24.91955 60.40897 24.60203 C 60.09145 24.284512 59.660034 24.107319 59.210999 24.110001 L 52.331001 24.110001 L 52.331001 12.306 C 52.331001 11.267 51.511002 10.445999 50.471001 10.445999 C 49.433998 10.445999 48.612999 11.267 48.612999 12.306 L 48.612999 25.631001 C 48.612999 26.67 49.432999 27.489 50.472 27.489 L 59.212002 27.489 Z M 68.528999 14.406 C 70.532997 14.406 71.982002 14.937 72.899002 15.854 C 73.863998 16.820999 74.299004 18.243999 74.299004 19.983999 L 74.299004 25.872 C 74.299004 26.862 73.500999 27.635 72.512001 27.635 C 71.449997 27.635 70.749001 26.886 70.749001 26.115 L 70.749001 26.089001 C 69.856003 27.079 68.625999 27.731001 66.838997 27.731001 C 64.401001 27.731001 62.397999 26.330999 62.397999 23.771999 L 62.397999 23.724001 C 62.397999 20.9 64.545998 19.596001 67.612 19.596001 C 68.689362 19.586657 69.759979 19.766727 70.775002 20.128 L 70.775002 19.91 C 70.775002 18.389 69.831001 17.544001 67.998001 17.544001 C 67.139534 17.53433 66.284637 17.656073 65.462997 17.905001 C 65.293556 17.968876 65.114082 18.00206 64.932999 18.003 C 64.086998 18.003 63.411999 17.351 63.411999 16.507 C 63.411999 15.872 63.806 15.304001 64.401001 15.082001 C 65.560997 14.646999 66.815002 14.406 68.528999 14.406 Z M 68.478996 21.792999 C 66.912003 21.792999 65.945999 22.421 65.945999 23.579 L 65.945999 23.625999 C 65.945999 24.615999 66.766998 25.195999 67.950996 25.195999 L 67.949997 25.195999 L 68.144997 25.191999 C 69.685997 25.125999 70.735001 24.277 70.817001 23.079 L 70.821999 22.927999 L 70.821999 22.275 C 70.194 21.986 69.374001 21.792999 68.480003 21.792999 Z M 79.295998 27.635 C 80.309998 27.635 81.128998 26.815001 81.128998 25.799999 L 81.128998 22.372 C 81.128998 19.764999 82.168999 18.341999 84.027 17.907 C 84.775002 17.737 85.402 17.157 85.402 16.193001 C 85.402 15.153 84.75 14.406 83.616997 14.406 C 82.528999 14.406 81.661003 15.564999 81.130997 16.820999 L 81.130997 16.240999 C 81.130997 15.227558 80.309441 14.406 79.295998 14.406 C 78.282555 14.406 77.460999 15.227558 77.460999 16.240999 L 77.460999 25.801001 C 77.460999 26.813999 78.280998 27.634001 79.293999 27.634001 L 79.295998 27.635 Z M 92.306 14.406 C 94.310997 14.406 95.759003 14.937 96.676003 15.854 C 97.640999 16.820999 98.075996 18.243999 98.075996 19.983999 L 98.075996 25.872 C 98.075996 26.862 97.278999 27.635 96.290001 27.635 C 95.226997 27.635 94.527 26.886 94.527 26.115 L 94.527 26.089001 C 93.634003 27.079 92.403999 27.732 90.615997 27.732 C 88.178001 27.731001 86.176003 26.330999 86.176003 23.771999 L 86.176003 23.724001 C 86.176003 20.9 88.323997 19.596001 91.389999 19.596001 C 92.467026 19.586773 93.537292 19.766844 94.552002 20.128 L 94.552002 19.91 C 94.552002 18.389 93.609001 17.544001 91.776001 17.544001 C 90.917534 17.53433 90.062637 17.656073 89.240997 17.905001 C 89.071556 17.968876 88.892082 18.00206 88.710999 18.003 C 87.863998 18.003 87.189003 17.351 87.189003 16.507 C 87.189003 15.872 87.584 15.304001 88.179001 15.082001 C 89.338997 14.646999 90.592003 14.406 92.306 14.406 Z M 92.258003 21.792999 C 90.690002 21.792999 89.723999 22.421 89.723999 23.579 L 89.723999 23.625999 C 89.723999 24.615999 90.544998 25.195999 91.726997 25.195999 C 93.441002 25.195999 94.598999 24.256001 94.598999 22.927999 L 94.598999 22.275 C 93.972 21.986 93.152 21.792999 92.258003 21.792999 Z M 106.428001 27.756001 C 107.417999 27.756001 108.095001 27.103001 108.503998 26.163 L 112.462997 17.013 C 112.535004 16.844 112.656998 16.458 112.656998 16.143999 C 112.6576 15.678345 112.471092 15.231972 112.139389 14.905157 C 111.807686 14.578342 111.358597 14.398489 110.892998 14.406 C 109.928001 14.406 109.420998 15.034 109.181 15.660999 L 106.356003 23.216999 L 103.581001 15.709 C 103.314003 14.961 102.782997 14.406 101.792999 14.406 C 100.804001 14.406 100.007004 15.250999 100.007004 16.120001 C 100.007004 16.458 100.103996 16.771999 100.200996 17.014 L 104.160004 26.163 C 104.57 27.128 105.246002 27.756001 106.235001 27.756001 L 106.429001 27.756001 L 106.428001 27.756001 Z M 120.404999 14.309 C 124.725998 14.309 126.633003 17.858999 126.633003 20.537001 C 126.633003 21.6 125.885002 22.299999 124.918999 22.299999 L 117.653999 22.299999 C 118.015999 23.965 119.174004 24.834999 120.816002 24.834999 C 121.75753 24.842724 122.674805 24.536612 123.422997 23.965 C 123.677483 23.765942 123.994125 23.663227 124.317001 23.674999 C 125.137001 23.674999 125.739998 24.305 125.739998 25.124001 C 125.739998 25.607 125.524002 25.969999 125.257004 26.209999 C 124.123001 27.177 122.650002 27.780001 120.766998 27.780001 C 116.880997 27.780001 114.009003 25.052 114.009003 21.093 L 114.009003 21.046 C 114.009003 17.351 116.639 14.309 120.404999 14.309 Z M 120.404999 17.254 C 118.885002 17.254 117.894997 18.34 117.605003 20.007 L 123.133003 20.007 C 122.916 18.365 121.949997 17.254 120.404999 17.254 Z M 131.438004 27.635 C 132.451996 27.635 133.270996 26.815001 133.270996 25.799999 L 133.270996 11.556 C 133.270996 10.54311 132.44989 9.722 131.436996 9.722 C 130.424103 9.722 129.602997 10.54311 129.602997 11.556 L 129.602997 25.799999 C 129.602997 26.813999 130.423004 27.632999 131.436005 27.632999 L 131.438004 27.636 Z M 146.188004 27.635 C 147.201004 27.635 148.020996 26.815001 148.020996 25.799999 L 148.020996 16.747 L 155.455994 26.5 C 155.962997 27.153 156.494995 27.586 157.386002 27.586 L 157.509003 27.586 C 158.546005 27.586 159.367004 26.766001 159.367004 25.728001 L 159.367004 12.283001 C 159.367004 11.269558 158.545441 10.448 157.531998 10.448 C 156.518555 10.448 155.697006 11.269558 155.697006 12.283001 L 155.697006 20.996 L 148.526993 11.581001 C 148.022003 10.93 147.490005 10.494999 146.597 10.494999 L 146.210999 10.494999 C 145.173004 10.494999 144.352005 11.316 144.352005 12.354 L 144.352005 25.799 C 144.352005 26.813 145.171997 27.635 146.186005 27.635 L 146.186996 27.635 Z M 169.432007 14.309 C 173.438995 14.309 176.408005 17.278999 176.408005 20.996 L 176.408005 21.044001 C 176.408005 24.763 173.414993 27.778999 169.384003 27.778999 C 165.376999 27.778999 162.408005 24.809 162.408005 21.093 L 162.408005 21.046 C 162.408005 17.327 165.401001 14.309 169.432007 14.309 Z M 169.384003 17.472 C 167.283997 17.472 166.029007 19.089001 166.029007 20.996 L 166.029007 21.044001 C 166.029007 22.951 167.404007 24.617001 169.432007 24.617001 C 171.531998 24.617001 172.787003 23 172.787003 21.093 L 172.787003 21.044001 C 172.787003 19.139 171.412003 17.472 169.384003 17.472 Z M 184.182007 27.756001 C 185.171997 27.756001 185.845993 27.103001 186.257996 26.163 L 190.216003 17.013 C 190.287994 16.844 190.410995 16.458 190.410995 16.143999 C 190.411591 15.678345 190.225098 15.231972 189.893387 14.905157 C 189.561691 14.578342 189.112595 14.398489 188.647003 14.406 C 187.681 14.406 187.173996 15.034 186.934006 15.660999 L 184.108994 23.216999 L 181.332001 15.709 C 181.067993 14.961 180.535995 14.406 179.546005 14.406 C 178.557007 14.406 177.759995 15.250999 177.759995 16.120001 C 177.759995 16.458 177.856995 16.771999 177.953995 17.014 L 181.912994 26.163 C 182.322998 27.128 182.998993 27.756001 183.988007 27.756001 L 184.182007 27.756001 Z M 197.942001 14.406 C 199.945007 14.406 201.393005 14.937 202.309998 15.854 C 203.276993 16.820999 203.710007 18.243999 203.710007 19.983999 L 203.710007 25.872 C 203.710007 26.862 202.914001 27.635 201.923996 27.635 C 200.863007 27.635 200.162994 26.886 200.162994 26.115 L 200.162994 26.089001 C 199.268997 27.079 198.037003 27.731001 196.253006 27.731001 C 193.813004 27.731001 191.809006 26.330999 191.809006 23.771999 L 191.809006 23.724001 C 191.809006 20.9 193.957993 19.596001 197.024002 19.596001 C 198.101028 19.586773 199.171295 19.766844 200.186005 20.128 L 200.186005 19.91 C 200.186005 18.389 199.244003 17.544001 197.410004 17.544001 C 196.551529 17.53433 195.69664 17.656073 194.875 17.905001 C 194.705582 17.968979 194.526093 18.002167 194.345001 18.003 C 193.5 18.003 192.822998 17.351 192.822998 16.507 C 192.822998 15.871 193.218002 15.303001 193.813004 15.082001 C 194.972 14.646999 196.227997 14.406 197.942001 14.406 Z M 197.893005 21.792999 C 196.322998 21.792999 195.358002 22.421 195.358002 23.579 L 195.358002 23.625999 C 195.358002 24.615999 196.179001 25.195999 197.362 25.195999 C 199.076004 25.195999 200.235001 24.256001 200.235001 22.927999 L 200.235001 22.275 C 199.606995 21.986 198.785995 21.792999 197.893005 21.792999 Z"/>
    </g>
    <text id="text1" xml:space="preserve" x="51" y="31" font-family="PingFang SC" font-size="30" fill="#000000" letter-spacing="6">后台管理</text>
</svg>
